<?xml version="1.0"?>
<svg xmlns:rdf="http://www.w3.org/1999/02/22-rdf-syntax-ns#" xmlns="http://www.w3.org/2000/svg" xmlns:cc="http://creativecommons.org/ns#" xmlns:xlink="http://www.w3.org/1999/xlink" xmlns:dc="http://purl.org/dc/elements/1.1/" xmlns:svg="http://www.w3.org/2000/svg" id="svg2" viewBox="0 0 348.17 397.34" version="1.2">
  <defs id="defs4">
    <clipPath id="clipPath3607">
      <path id="path3609" opacity=".88" d="m415.71 328.38a170.71 168.57 0 1 1 -341.43 0 170.71 168.57 0 1 1 341.43 0z" fill="#000080" transform="matrix(.79727 0 0 .49127 29.71 254.99)"/>
    </clipPath>
    <clipPath id="clipPath3611">
      <path id="path3613" opacity=".88" d="m415.71 328.38a170.71 168.57 0 1 1 -341.43 0 170.71 168.57 0 1 1 341.43 0z" fill="#000080" transform="matrix(.96225 0 0 .98292 7.1874 8.5351)"/>
    </clipPath>
    <clipPath id="clipPath3615">
      <path id="path3617" opacity=".88" d="m415.71 328.38a170.71 168.57 0 1 1 -341.43 0 170.71 168.57 0 1 1 341.43 0z" fill="#000080" transform="matrix(.96225 0 0 .98292 12.686 9.9393)"/>
    </clipPath>
    <filter id="filter4462" color-interpolation-filters="sRGB">
      <feGaussianBlur id="feGaussianBlur4464" stdDeviation="4.6928174"/>
    </filter>
    <radialGradient id="radialGradient3406" gradientUnits="userSpaceOnUse" cy="1033.1" cx="652.73" gradientTransform="matrix(-.18644 .00083464 -.00021091 -.087886 375.6 897.43)" r="539.29">
      <stop id="stop4531" stop-color="#000080" offset="0"/>
      <stop id="stop4533" stop-opacity="0" offset="1"/>
    </radialGradient>
    <linearGradient id="linearGradient3416" y2="559.51" gradientUnits="userSpaceOnUse" x2="248.57" gradientTransform="matrix(.93104 0 0 1 19.606 0)" y1="866.65" x1="265.71">
      <stop id="stop3638" stop-color="#000080" offset="0"/>
      <stop id="stop3640" stop-color="#000080" stop-opacity="0" offset="1"/>
    </linearGradient>
    <radialGradient id="radialGradient3461" gradientUnits="userSpaceOnUse" cy="221.84" cx="347.56" gradientTransform="matrix(-.000036034 1.0362 -.67179 -.00065774 386.08 -8.3539)" r="172.86">
      <stop id="stop4541" stop-color="#e6e6e6" offset="0"/>
      <stop id="stop4543" stop-color="#e6e6e6" stop-opacity="0" offset="1"/>
    </radialGradient>
    <linearGradient id="linearGradient3463" y2="51.877" gradientUnits="userSpaceOnUse" x2="179.02" y1="607.93" x1="271.12">
      <stop id="stop3579" stop-color="#008080" offset="0"/>
      <stop id="stop3581" stop-color="#008080" stop-opacity="0" offset="1"/>
    </linearGradient>
    <linearGradient id="linearGradient3465" y2="482.96" gradientUnits="userSpaceOnUse" x2="321.98" y1="-188.24" x1="-29.928">
      <stop id="stop3589" stop-color="#0ff" offset="0"/>
      <stop id="stop3591" stop-color="#0ff" stop-opacity="0" offset="1"/>
    </linearGradient>
    <linearGradient id="linearGradient3467" y2="330.79" gradientUnits="userSpaceOnUse" x2="219.92" y1="635.63" x1="233.58">
      <stop id="stop3599" stop-color="#000080" offset="0"/>
      <stop id="stop3601" stop-color="#000080" stop-opacity="0" offset="1"/>
    </linearGradient>
    <linearGradient id="linearGradient3469" y2="344.16" gradientUnits="userSpaceOnUse" x2="254.48" y1="226.95" x1="255.97">
      <stop id="stop3648" stop-color="#fff" offset="0"/>
      <stop id="stop3650" stop-color="#fff" stop-opacity="0" offset="1"/>
    </linearGradient>
    <linearGradient id="linearGradient3471" y2="146.95" gradientUnits="userSpaceOnUse" x2="241.43" y1="762.05" x1="247.29">
      <stop id="stop4500" offset="0"/>
      <stop id="stop4502" stop-opacity="0" offset="1"/>
    </linearGradient>
  </defs>
  <g id="layer1" transform="translate(-323.18 -466.53)">
    <g id="g3365" transform="matrix(.95037 0 0 .95037 176.9 58.118)">
      <g id="g3155" transform="translate(98.599 3.5854)">
        <path id="path4509" fill="url(#radialGradient3406)" d="m181.82 774.97 137.55-1.1821 99.196 68.571-332.86-0.59628z"/>
        <path id="path4535" opacity=".33" d="m414.29 324.09c0 97.833-77.391 177.14-172.86 177.14-95.466 0-172.86-79.31-172.86-177.14 0-97.833 77.391-177.14 172.86-177.14 95.466 0 172.86 79.31 172.86 177.14z" fill="url(#radialGradient3461)" transform="matrix(.97521 0 0 .18145 14.557 748.84)"/>
        <path id="path3138" d="m1.5314e-7 100c-3.1564 0-5.7151-44.772-5.7151-100s2.5587-100 5.7151-100h2.6524e-7" stroke="#000080" fill="none" transform="matrix(1.7123 .068676 -.068676 1.7123 242.63 636.5)"/>
        <path id="path3140" d="m7.1462e-7 100c-14.729 0-26.67-44.772-26.67-100s11.941-100 26.67-100h0.0000012378" stroke="#000080" fill="none" transform="matrix(1.6812 .33203 -.33203 1.6812 242.63 636.5)"/>
        <path id="path3142" d="m0.0000012274 100c-25.299 0-45.807-44.772-45.807-100s20.508-100 45.807-100h0.0000021259" stroke="#000080" fill="none" transform="matrix(1.5982 .61832 -.61832 1.5982 242.63 636.5)"/>
        <path id="path3144" d="m0.0000016565 100c-34.144 0-61.823-44.772-61.823-100s27.679-100 61.823-100h0.0000028692" stroke="#000080" fill="none" transform="matrix(1.4303 .94377 -.94377 1.4303 242.63 636.5)"/>
        <path id="path3146" d="m0.0000019728 100c-40.662 0-73.626-44.772-73.626-100s32.964-100 73.626-100h0.000003417" stroke="#000080" fill="none" transform="matrix(1.1101 1.3055 -1.3055 1.1101 242.63 636.5)"/>
        <path id="path3148" d="m0.0000021546 100c-44.41 0-80.411-44.772-80.411-100s36.001-100 80.411-100h0.0000037319" stroke="#000080" fill="none" transform="matrix(.55001 1.623 -1.623 .55001 242.63 636.5)"/>
        <path id="path3150" d="m0.0000016029-100c45.131 0 81.717 44.772 81.717 100s-36.586 100-81.717 100" stroke="#000080" fill="none" transform="matrix(.20738 -1.701 1.701 .20738 242.63 636.5)"/>
        <path id="path3152" d="m0.0000015193-100c42.776 0 77.453 44.772 77.453 100s-34.677 100-77.453 100" stroke="#000080" fill="none" transform="matrix(.882 -1.4692 1.4692 .882 242.63 636.5)"/>
        <path id="path3154" d="m0.0000013321-100c37.507 0 67.912 44.772 67.912 100s-30.405 100-67.912 100" stroke="#000080" fill="none" transform="matrix(1.3055 -1.1101 1.1101 1.3055 242.63 636.5)"/>
        <path id="path3156" d="m0.0000010542-100c29.681 0 53.742 44.772 53.742 100s-24.061 100-53.742 100" stroke="#000080" fill="none" transform="matrix(1.5336 -.76465 .76465 1.5336 242.63 636.5)"/>
        <path id="path3158" d="m7.0439e-7 -100c19.833 0 35.91 44.772 35.91 100s-16.077 100-35.91 100" stroke="#000080" fill="none" transform="matrix(1.6503 -.46167 .46167 1.6503 242.63 636.5)"/>
        <path id="path3160" d="m3.0661e-7 -100c8.6329 0 15.631 44.772 15.631 100s-6.9981 100-15.631 100" stroke="#000080" fill="none" transform="matrix(1.7031 -.18988 .18988 1.7031 242.63 636.5)"/>
        <path id="path3164" d="m15.682 98.764c-10.262 1.6294-21.102 1.6294-31.364 0.000001" stroke="#000080" fill="none" transform="matrix(1.7136 0 0 1.7136 242.63 636.5)"/>
        <path id="path3166" d="m50.483 86.323c-27.345 15.992-72.114 16.242-99.995 0.55695-0.3268-0.18384-0.65047-0.3695-0.97099-0.55695" stroke="#000080" fill="none" transform="matrix(1.7136 0 0 1.7136 242.63 636.5)"/>
        <path id="path3168" d="m69.65 71.756c-22.73 22.064-72.34 29.384-110.81 16.343-11.746-3.982-21.548-9.604-28.49-16.343" stroke="#000080" fill="none" transform="matrix(1.7136 0 0 1.7136 242.63 636.5)"/>
        <path id="path3170" d="m83.237 55.422c-17.556 26.368-69.055 39.581-115.03 29.51-23.685-5.189-42.397-15.922-51.444-29.51" stroke="#000080" fill="none" transform="matrix(1.7136 0 0 1.7136 242.63 636.5)"/>
        <path id="path3172" d="m92.612 37.724c-11.951 29.338-63.102 47.564-114.25 40.71-35.232-4.722-62.742-20.501-70.974-40.71" stroke="#000080" fill="none" transform="matrix(1.7136 0 0 1.7136 242.63 636.5)"/>
        <path id="path3174" d="m98.16 19.097c-6.05 31.096-54.902 53.49-109.11 50.02-45.879-2.936-82.09-23.706-87.21-50.02" stroke="#000080" fill="none" transform="matrix(1.7136 0 0 1.7136 242.63 636.5)"/>
        <path id="path3176" d="m100 0c0 31.678-44.772 57.359-100 57.359s-100-25.681-100-57.359v-0.000002662" stroke="#000080" fill="none" transform="matrix(1.7136 0 0 1.7136 242.63 636.5)"/>
        <path id="path3178" d="m98.16-19.097c6.05 31.095-32.994 59.116-87.206 62.586s-103.06-18.925-109.11-50.02c-0.81236-4.1756-0.81236-8.3901-0.000001-12.566" stroke="#000080" fill="none" transform="matrix(1.7136 0 0 1.7136 242.63 636.5)"/>
        <path id="path3180" d="m92.612-37.724c11.948 29.338-19.826 58.677-70.974 65.532-51.148 6.854-102.3-11.372-114.25-40.71-3.3255-8.1641-3.3255-16.658 0.000001-24.822" stroke="#000080" fill="none" transform="matrix(1.7136 0 0 1.7136 242.63 636.5)"/>
        <path id="path3182" d="m83.237-55.422c17.553 26.368-5.478 55.907-51.448 65.977-45.971 10.07-97.47-3.142-115.03-29.51-7.8182-11.742-7.8182-24.725-0.000002-36.467" stroke="#000080" fill="none" transform="matrix(1.7136 0 0 1.7136 242.63 636.5)"/>
        <path id="path3184" d="m69.65-71.756c22.731 22.064 9.974 50.52-28.493 63.558s-88.077 5.7209-110.81-16.343c-15.002-14.562-15.002-32.653 0.000001-47.215" stroke="#000080" fill="none" transform="matrix(1.7136 0 0 1.7136 242.63 636.5)"/>
        <path id="path3186" d="m50.483-86.322c27.345 15.992 26.91 41.672-0.97099 57.356-27.881 15.685-72.65 15.435-99.995-0.55695-26.97-15.773-26.97-41.026-0.000003-56.799" stroke="#000080" fill="none" transform="matrix(1.7136 0 0 1.7136 242.63 636.5)"/>
        <path id="path3188" d="m15.682-98.764c31.286 4.9678 49.627 23.543 40.966 41.488-8.6609 17.945-41.044 28.466-72.33 23.498-31.286-4.9678-49.627-23.543-40.966-41.488 5.5101-11.417 21.062-20.337 40.966-23.498" stroke="#000080" fill="none" transform="matrix(1.7136 0 0 1.7136 242.63 636.5)"/>
        <path id="path3190" d="m45.399-72.987c0 14.382-20.326 26.041-45.399 26.041s-45.399-11.659-45.399-26.041 20.326-26.041 45.399-26.041 45.399 11.659 45.399 26.041z" stroke="#000080" fill="none" transform="matrix(1.7136 0 0 1.7136 242.63 636.5)"/>
        <path id="path3192" d="m30.902-77.906c0 9.7895-13.835 17.725-30.902 17.725s-30.902-7.936-30.902-17.725c0-9.7895 13.835-17.725 30.902-17.725s30.902 7.936 30.902 17.725z" stroke="#000080" fill="none" transform="matrix(1.7136 0 0 1.7136 242.63 636.5)"/>
        <path id="path3194" d="m15.643-80.907c0 4.956-7.0038 8.9737-15.643 8.9737-8.6396 0-15.643-4.0177-15.643-8.9737s7.0038-8.9737 15.643-8.9737c8.6396 0 15.643 4.0177 15.643 8.9737z" stroke="#000080" fill="none" transform="matrix(1.7136 0 0 1.7136 242.63 636.5)"/>
        <path id="path3196" d="m100 0c0 55.228-44.772 100-100 100s-100-44.772-100-100 44.772-100 100-100 100 44.772 100 100z" stroke="#000080" fill="none" transform="matrix(1.7136 0 0 1.7136 242.63 636.5)"/>
        <path id="path3575" d="m411.43 332.67c0 92.31-74.513 167.14-166.43 167.14-91.916 0-166.43-74.832-166.43-167.14 0-92.31 74.513-167.14 166.43-167.14 91.916 0 166.43 74.832 166.43 167.14z" clip-path="url(#clipPath3615)" transform="matrix(1.0392 0 0 1.0174 -13.184 298.16)" stroke="#000080" stroke-width=".2" fill="url(#linearGradient3463)"/>
        <path id="path3585" opacity=".88" d="m411.43 332.67c0 92.31-74.513 167.14-166.43 167.14-91.916 0-166.43-74.832-166.43-167.14 0-92.31 74.513-167.14 166.43-167.14 91.916 0 166.43 74.832 166.43 167.14z" clip-path="url(#clipPath3611)" transform="matrix(1.0392 0 0 1.0174 -7.4694 299.58)" stroke="#000080" stroke-width=".2" fill="url(#linearGradient3465)"/>
        <path id="path3595" opacity=".88" d="m382.86 419.81c0 44.972-69.396 81.429-155 81.429s-155-36.457-155-81.429 69.396-81.429 155-81.429 155 36.457 155 81.429z" clip-path="url(#clipPath3607)" transform="matrix(1.2543 0 0 2.0355 -37.264 -210.78)" fill="url(#linearGradient3467)"/>
        <path id="path3627" opacity=".88" d="m253.66 560.86c-68.374 0-127.86 34.736-158.65 85.969-2.3215 8.9181-3.5787 18.186-3.5787 27.688 0 71.403 69.08 129.28 154.29 129.28s154.29-57.879 154.29-129.28c0-26.406-9.4737-50.973-25.691-71.438-32.023-26.247-74.297-42.219-120.66-42.219z" fill="url(#linearGradient3416)"/>
        <path id="path3644" opacity=".88" d="m382.86 263.38c0 33.532-59.482 60.714-132.86 60.714-73.375 0-132.86-27.183-132.86-60.714 0-33.532 59.482-60.714 132.86-60.714 73.375 0 132.86 27.183 132.86 60.714z" transform="matrix(1.043 0 0 2.0471 -5.0384 53.207)" filter="url(#filter4462)" fill="url(#linearGradient3469)"/>
        <path id="path4496" opacity=".33" d="m414.29 324.09c0 97.833-77.391 177.14-172.86 177.14-95.466 0-172.86-79.31-172.86-177.14 0-97.833 77.391-177.14 172.86-177.14 95.466 0 172.86 79.31 172.86 177.14z" fill="url(#linearGradient3471)" transform="matrix(.97521 0 0 .94758 10.272 328.83)"/>
        <path id="path4547" opacity=".22" d="m414.29 324.09c0 97.833-77.391 177.14-172.86 177.14-95.466 0-172.86-79.31-172.86-177.14 0-97.833 77.391-177.14 172.86-177.14 95.466 0 172.86 79.31 172.86 177.14z" fill="url(#radialGradient3461)" transform="matrix(.57025 0 0 .26613 112.33 673.54)"/>
      </g>
    </g>
  </g>
  <metadata>
    <rdf:RDF>
      <cc:Work>
        <dc:format>image/svg+xml</dc:format>
        <dc:type rdf:resource="http://purl.org/dc/dcmitype/StillImage"/>
        <cc:license rdf:resource="http://creativecommons.org/licenses/publicdomain/"/>
        <dc:publisher>
          <cc:Agent rdf:about="http://openclipart.org/">
            <dc:title>Openclipart</dc:title>
          </cc:Agent>
        </dc:publisher>
        <dc:title>Globe shape</dc:title>
        <dc:date>2010-08-02T22:13:04</dc:date>
        <dc:description>Blue ball,globe</dc:description>
        <dc:source>http://openclipart.org/detail/76357/globe-shape-by-inky2010</dc:source>
        <dc:creator>
          <cc:Agent>
            <dc:title>inky2010</dc:title>
          </cc:Agent>
        </dc:creator>
        <dc:subject>
          <rdf:Bag>
            <rdf:li>Globe</rdf:li>
            <rdf:li>ball</rdf:li>
            <rdf:li>clip art</rdf:li>
            <rdf:li>clipart</rdf:li>
            <rdf:li>gloss</rdf:li>
            <rdf:li>glossy</rdf:li>
            <rdf:li>inky2010</rdf:li>
            <rdf:li>round</rdf:li>
          </rdf:Bag>
        </dc:subject>
      </cc:Work>
      <cc:License rdf:about="http://creativecommons.org/licenses/publicdomain/">
        <cc:permits rdf:resource="http://creativecommons.org/ns#Reproduction"/>
        <cc:permits rdf:resource="http://creativecommons.org/ns#Distribution"/>
        <cc:permits rdf:resource="http://creativecommons.org/ns#DerivativeWorks"/>
      </cc:License>
    </rdf:RDF>
  </metadata>
</svg>
